{"title":"Warm.Bodies.2013.480p.WEBRip.XviD.AC3-PTpOWeR","uid":8473189,"size":1422520766,"categoryP":"video","categoryS":"movies","magnet":"?xt=urn:btih:3fbb2fff4835b06b73f5c57fbb9d094516ddb338&amp;dn=Warm.Bodies.2013.480p.WEBRip.XviD.AC3-PTpOWeR&amp;tr=udp%3A%2F%2Ftracker.openbittorrent.com%3A80&amp;tr=udp%3A%2F%2Fopen.demonii.com%3A1337&amp;tr=udp%3A%2F%2Ftracker.coppersurfer.tk%3A6969&amp;tr=udp%3A%2F%2Fexodus.desync.com%3A6969","seeders":0,"leechers":0,"uploader":"xxxlavalxxx","files":-1,"time":1368541151,"description":"\n\n\n &lt;a href=&quot;\nhttp://www.imdb.com/title/tt1588173/&quot; rel=&quot;nofollow&quot; target=&quot;_NEW&quot;&gt;\nhttp://www.imdb.com/title/tt1588173/&lt;/a&gt;\n\n\nWith much of the world's population now an undead horde, R is a young and introspective zombie. While fighting with and feeding on a human scavenger party, R meets Julie and feels an urge to protect her. What happens next is the beginning of a strangely warm relationship that allows R to begin regaining his humanity. As this change spreads through the local undead population like a virus, Julie and R eventually have to face a larger issue when the very nature of their friendship is challenged. Caught between the paranoid human forces and the ferocious &quot;Bonies&quot;, zombies who are a mutual threat, R and Julie must find a way common bond bridge the differences each sides must overcome so that they all fight for a better world no one thought possible. \n\n\n\nDirector:\n Jonathan Levine \n\nWriters:\n Jonathan Levine (screenplay), Isaac Marion (novel) \n\nStars:\n Nicholas Hoult, Teresa Palmer, Analeigh Tipton\n\nGenres:\n  Comedy |  Horror |  Romance \n\nCountry:\n USA \n\nLanguage:\n English \n\n\n\nFormat                                   : AVI\nFormat/Info                              : Audio Video Interleave\nFile size                                : 1.32 GiB\nDuration                                 : 1h 37mn\nOverall bit rate                         : 1 940 Kbps\nWriting application                      : VirtualDubMod 1.5.10.2 (build 2540/release)\nWriting library                          : VirtualDubMod build 2540/release\n\nVideo\nID                                       : 0\nFormat                                   : MPEG-4 Visual\nFormat profile                           : Advanced Simple@L5\nFormat settings, BVOP                    : 2\nFormat settings, QPel                    : No\nFormat settings, GMC                     : No warppoints\nFormat settings, Matrix                  : Default (H.263)\nMuxing mode                              : Packed bitstream\nCodec ID                                 : XVID\nCodec ID/Hint                            : XviD\nDuration                                 : 1h 37mn\nBit rate                                 : 1 547 Kbps\nWidth                                    : 720 pixels\nHeight                                   : 304 pixels\nDisplay aspect ratio                     : 2.40:1\nOriginal display aspect ratio            : 2.35:1\nFrame rate                               : 23.976 fps\nColor space                              : YUV\nChroma subsampling                       : 4:2:0\nBit depth                                : 8 bits\nScan type                                : Progressive\nCompression mode                         : Lossy\nBits/(Pixel*Frame)                       : 0.295\nStream size                              : 1.06 GiB (80%)\nWriting library                          : XviD 64\n\nAudio\nID                                       : 1\nFormat                                   : AC-3\nFormat/Info                              : Audio Coding 3\nMode extension                           : CM (complete main)\nFormat settings, Endianness              : Big\nCodec ID                                 : 2000\nDuration                                 : 1h 37mn\nBit rate mode                            : Constant\nBit rate                                 : 384 Kbps\nChannel(s)                               : 6 channels\nChannel positions                        : Front: L C R, Side: L R, LFE\nSampling rate                            : 48.0 KHz\nBit depth                                : 16 bits\nCompression mode                         : Lossy\nStream size                              : 269 MiB (20%)\nAlignment                                : Split accross interleaves\nInterleave, duration                     : 42 ms (1.00 video frame)\nInterleave, preload duration             : 500 ms\n\n\n\n\nScreens:\n\n\n    &lt;a href=&quot;\thttp://addpix.net/viewer.php?file=96959743081179095744.jpg&quot; rel=&quot;nofollow&quot; target=&quot;_NEW&quot;&gt;\thttp://addpix.net/viewer.php?file=96959743081179095744.jpg&lt;/a&gt;\n    &lt;a href=&quot;\thttp://addpix.net/viewer.php?file=64042918050328509024.jpg&quot; rel=&quot;nofollow&quot; target=&quot;_NEW&quot;&gt;\thttp://addpix.net/viewer.php?file=64042918050328509024.jpg&lt;/a&gt;\n    &lt;a href=&quot;\thttp://addpix.net/viewer.php?file=78331100249578250366.jpg&quot; rel=&quot;nofollow&quot; target=&quot;_NEW&quot;&gt;\thttp://addpix.net/viewer.php?file=78331100249578250366.jpg&lt;/a&gt;\n    &lt;a href=&quot;\thttp://addpix.net/viewer.php?file=57784872008096484194.jpg&quot; rel=&quot;nofollow&quot; target=&quot;_NEW&quot;&gt;\thttp://addpix.net/viewer.php?file=57784872008096484194.jpg&lt;/a&gt;\n    &lt;a href=&quot;\thttp://addpix.net/viewer.php?file=32330362277929941939.jpg&quot; rel=&quot;nofollow&quot; target=&quot;_NEW&quot;&gt;\thttp://addpix.net/viewer.php?file=32330362277929941939.jpg&lt;/a&gt;\n    &lt;a href=&quot;\thttp://addpix.net/viewer.php?file=01155170030283206312.jpg&quot; rel=&quot;nofollow&quot; target=&quot;_NEW&quot;&gt;\thttp://addpix.net/viewer.php?file=01155170030283206312.jpg&lt;/a&gt;","torrent":{"xt":"urn:btih:3fbb2fff4835b06b73f5c57fbb9d094516ddb338","amp;dn":"Warm.Bodies.2013.480p.WEBRip.XviD.AC3-PTpOWeR","amp;tr":["udp%3A%2F%2Ftracker.openbittorrent.com%3A80","udp%3A%2F%2Fopen.demonii.com%3A1337","udp%3A%2F%2Ftracker.coppersurfer.tk%3A6969","udp%3A%2F%2Fexodus.desync.com%3A6969"],"infoHash":"3fbb2fff4835b06b73f5c57fbb9d094516ddb338","infoHashBuffer":{"type":"Buffer","data":[63,187,47,255,72,53,176,107,115,245,197,127,187,157,9,69,22,221,179,56]},"announce":[],"urlList":[]}}